<svg xmlns="http://www.w3.org/2000/svg" xmlns:xlink="http://www.w3.org/1999/xlink" width="119.584" height="101.314" viewBox="0 0 119.584 101.314">
  <defs>
    <filter id="Path_4291" x="0" y="3.369" width="97.946" height="97.946" filterUnits="userSpaceOnUse">
      <feOffset dy="3" input="SourceAlpha"/>
      <feGaussianBlur stdDeviation="3" result="blur"/>
      <feFlood flood-opacity="0.161"/>
      <feComposite operator="in" in2="blur"/>
      <feComposite in="SourceGraphic"/>
    </filter>
    <clipPath id="empty-donation-clip-path">
      <path id="Path_4290" data-name="Path 4290" d="M23.131,8.8l-9.537,2.682c-.835.283-.2.441.063.439l4.58-.049c1.108.006,2.343-.08,1.462,2.153a16.056,16.056,0,0,1-3.863,5.747.139.139,0,0,0,.031.224l2.08,1.093a.347.347,0,0,0,.414-.067A18.81,18.81,0,0,0,21.3,16.934a19.692,19.692,0,0,0,2.2-7.827.292.292,0,0,0-.371-.3m4.438-1.256-1.923.546a.7.7,0,0,0-.5.636A20.825,20.825,0,0,1,19.114,22.55a.758.758,0,0,1-.873.141l-1.053-.525-2.613-1.3a15.034,15.034,0,0,1-5.5-5.132,14.49,14.49,0,0,1-1.954-5.5,18.609,18.609,0,0,0-2.25,1.386.349.349,0,0,0-.139.359,16.783,16.783,0,0,0,2.075,5.155,18.142,18.142,0,0,0,7.993,6.84l3.546,1.658a1.508,1.508,0,0,0,1.641-.241c.432-.384.861-.791,1.235-1.176l.026-.024h0a23.063,23.063,0,0,0,3.817-5.243,24.2,24.2,0,0,0,2.768-11.2.208.208,0,0,0-.266-.2M13.484,4.277a19,19,0,0,0-3.4.389,15.765,15.765,0,0,0-2.495.7l-.062.022c-.163.059-.331.122-.5.19l-.077.031a20.3,20.3,0,0,0-6.5,4.124A1.253,1.253,0,0,0,.082,10.9l.12.563a35.513,35.513,0,0,0,.958,3.567,20.679,20.679,0,0,0,2.019,4.34A22.754,22.754,0,0,0,13.9,28.307l.477.189a1.391,1.391,0,0,0,1.191-.079c.691-.386,1.792-1.008,2.1-1.216a.152.152,0,0,0-.027-.265l-2.718-1.161a19.994,19.994,0,0,1-9.478-7.8,18.259,18.259,0,0,1-2.142-5.107l-.29-1.357a.7.7,0,0,1,.252-.695A17.4,17.4,0,0,1,13.756,6.942a16.238,16.238,0,0,1,3.025.259,1.154,1.154,0,0,0,.518-.024l3.92-1.112a.209.209,0,0,0,.008-.4l-1.054-.346a19.586,19.586,0,0,0-6.264-1.047c-.142,0-.283,0-.424,0M13.377.006A23.078,23.078,0,0,0,1,3.942,2.089,2.089,0,0,0,.084,5.527l-.02.284Q0,6.716,0,7.605v.057a.139.139,0,0,0,.229.106A21.673,21.673,0,0,1,9.815,3.085,20.923,20.923,0,0,1,21.9,4.253l2.173.842a.7.7,0,0,0,.441.021l2.543-.722a.209.209,0,0,0,.049-.381l-1.154-.679a23.984,23.984,0,0,0-6.49-2.66A23.556,23.556,0,0,0,13.9,0q-.261,0-.522.006" transform="translate(0 0)" fill="#b5b5b5"/>
    </clipPath>
  </defs>
  <g id="Group_1540" data-name="Group 1540" transform="translate(9 0)">
    <ellipse id="Ellipse_132" data-name="Ellipse 132" cx="46.138" cy="47.676" rx="46.138" ry="47.676" transform="translate(18.307 0)" fill="#ededed"/>
    <g id="Group_1073" data-name="Group 1073" transform="translate(0 9.369)">
      <g transform="matrix(1, 0, 0, 1, -9, -9.37)" filter="url(#Path_4291)">
        <g id="Path_4291-2" data-name="Path 4291" transform="translate(9 9.37)" fill="#fff">
          <path d="M 39.97279739379883 77.94559478759766 C 34.84561920166016 77.94559478759766 29.87286758422852 76.94187927246094 25.19268035888672 74.96232604980469 C 20.67115020751953 73.04988098144531 16.6099739074707 70.31162261962891 13.12197399139404 66.82362365722656 C 9.633974075317383 63.33562088012695 6.895715236663818 59.27444458007812 4.983267784118652 54.75291442871094 C 3.003715038299561 50.07272720336914 1.99999737739563 45.0999755859375 1.99999737739563 39.97279739379883 C 1.99999737739563 34.84561920166016 3.003715038299561 29.87286758422852 4.983267784118652 25.19268035888672 C 6.895715236663818 20.67115020751953 9.633974075317383 16.6099739074707 13.12197399139404 13.12197399139404 C 16.6099739074707 9.633974075317383 20.67115020751953 6.895715236663818 25.19268035888672 4.983267784118652 C 29.87286758422852 3.003715038299561 34.84561920166016 1.99999737739563 39.97279739379883 1.99999737739563 C 45.0999755859375 1.99999737739563 50.07272720336914 3.003715038299561 54.75291442871094 4.983267784118652 C 59.27444458007812 6.895715236663818 63.33562088012695 9.633974075317383 66.82362365722656 13.12197399139404 C 70.31162261962891 16.6099739074707 73.04988098144531 20.67115020751953 74.96232604980469 25.19268035888672 C 76.94187927246094 29.87286758422852 77.94559478759766 34.84561920166016 77.94559478759766 39.97279739379883 C 77.94559478759766 45.0999755859375 76.94187927246094 50.07272720336914 74.96232604980469 54.75291442871094 C 73.04988098144531 59.27444458007812 70.31162261962891 63.33562088012695 66.82362365722656 66.82362365722656 C 63.33562088012695 70.31162261962891 59.27444458007812 73.04988098144531 54.75291442871094 74.96232604980469 C 50.07272720336914 76.94187927246094 45.0999755859375 77.94559478759766 39.97279739379883 77.94559478759766 Z" stroke="none"/>
          <path d="M 39.97279739379883 4 C 35.11473846435547 4 30.40412521362305 4.950553894042969 25.97179794311523 6.825286865234375 C 21.68865585327148 8.636894226074219 17.84116744995117 11.23122406005859 14.53619384765625 14.53619384765625 C 11.23122406005859 17.84116744995117 8.636894226074219 21.68865585327148 6.825286865234375 25.97179794311523 C 4.950553894042969 30.40412521362305 4 35.11473846435547 4 39.97279739379883 C 4 44.83085632324219 4.950553894042969 49.54148101806641 6.825286865234375 53.97381210327148 C 8.636894226074219 58.25694274902344 11.23120880126953 62.10443878173828 14.53618621826172 65.40940856933594 C 17.84115600585938 68.71438598632812 21.68865585327148 71.30870056152344 25.97179794311523 73.12032318115234 C 30.40412521362305 74.99504089355469 35.11473846435547 75.94559478759766 39.97279739379883 75.94559478759766 C 44.83085632324219 75.94559478759766 49.54146957397461 74.99504089355469 53.97379684448242 73.12032318115234 C 58.25694274902344 71.30870056152344 62.10443878173828 68.71438598632812 65.40940856933594 65.40940856933594 C 68.71438598632812 62.10443878173828 71.30870056152344 58.25694274902344 73.12031555175781 53.97381210327148 C 74.99504089355469 49.54148101806641 75.94559478759766 44.83085632324219 75.94559478759766 39.97279739379883 C 75.94559478759766 35.11473846435547 74.99504089355469 30.40412521362305 73.12031555175781 25.97179794311523 C 71.30870056152344 21.68865585327148 68.71437072753906 17.84116744995117 65.40939331054688 14.53619384765625 C 62.10442352294922 11.23122406005859 58.25694274902344 8.636894226074219 53.97379684448242 6.825286865234375 C 49.54146957397461 4.950553894042969 44.83085632324219 4 39.97279739379883 4 M 39.97279739379883 0 C 62.04915618896484 0 79.94559478759766 17.89643859863281 79.94559478759766 39.97279739379883 C 79.94559478759766 62.04917144775391 62.04915618896484 79.94559478759766 39.97279739379883 79.94559478759766 C 17.89643859863281 79.94559478759766 0 62.04917144775391 0 39.97279739379883 C 0 17.89643859863281 17.89643859863281 0 39.97279739379883 0 Z" stroke="none" fill="#b5b5b5"/>
        </g>
      </g>
      <g id="Ellipse_63" data-name="Ellipse 63" transform="translate(9.759 9.759)" fill="#fff" stroke="#b5b5b5" stroke-width="3">
        <ellipse cx="30.214" cy="30.214" rx="30.214" ry="30.214" stroke="none"/>
        <ellipse cx="30.214" cy="30.214" rx="28.714" ry="28.714" fill="none"/>
      </g>
      <g id="Group_1071" data-name="Group 1071" transform="translate(26.648 26.649)" clip-path="url(#empty-donation-clip-path)">
        <rect id="Rectangle_314" data-name="Rectangle 314" width="27.845" height="28.649" transform="translate(-0.009 0)" fill="#b5b5b5"/>
      </g>
    </g>
  </g>
</svg>
