<svg width="33" height="33" viewBox="0 0 33 33" fill="none" xmlns="http://www.w3.org/2000/svg">
    <path d="M0 8C0 3.58172 3.58172 0 8 0H25C29.4183 0 33 3.58172 33 8V25C33 29.4183 29.4183 33 25 33H8C3.58172 33 0 29.4183 0 25V8Z" fill="#2a98e4"/>
    <ellipse cx="16.5" cy="16" rx="12.5" ry="11" fill="white"/>
    <path d="M16.5 0C13.2366 0 10.0465 0.967708 7.3331 2.78075C4.61969 4.59379 2.50484 7.17074 1.25599 10.1857C0.00714934 13.2007 -0.319606 16.5183 0.31705 19.719C0.953706 22.9197 2.52518 25.8597 4.83274 28.1673C7.14031 30.4748 10.0803 32.0463 13.281 32.6829C16.4817 33.3196 19.7993 32.9929 22.8143 31.744C25.8293 30.4952 28.4062 28.3803 30.2192 25.6669C32.0323 22.9535 33 19.7634 33 16.5C32.9995 12.1241 31.2609 7.92756 28.1667 4.83332C25.0724 1.73909 20.8759 0.000528555 16.5 0ZM24.0339 12.8651C24.0412 13.0272 24.0449 13.1904 24.0449 13.3545C24.0545 14.7723 23.7824 16.1778 23.2443 17.4896C22.7061 18.8013 21.9127 19.993 20.9101 20.9955C19.9075 21.998 18.7157 22.7913 17.4039 23.3293C16.0922 23.8674 14.6866 24.1394 13.2688 24.1296C11.2104 24.1305 9.19526 23.5388 7.46413 22.4252C7.76383 22.4605 8.06534 22.4782 8.36712 22.4781C10.0724 22.4806 11.729 21.9095 13.0704 20.8565C12.2799 20.8422 11.5137 20.5809 10.8792 20.1092C10.2447 19.6376 9.77366 18.9791 9.53223 18.2262C10.0998 18.3359 10.6849 18.3137 11.2425 18.1615C10.3861 17.9883 9.6159 17.5244 9.06243 16.8483C8.50895 16.1722 8.20626 15.3256 8.20565 14.4518C8.20565 14.4349 8.20565 14.4189 8.20565 14.403C8.73132 14.6957 9.31954 14.8581 9.92094 14.8764C9.11877 14.3413 8.55089 13.5204 8.3331 12.5811C8.1153 11.6418 8.26399 10.6547 8.74884 9.82126C9.69983 10.9912 10.8862 11.9481 12.231 12.6298C13.5759 13.3115 15.049 13.7027 16.5548 13.7781C16.3637 12.9656 16.4464 12.1127 16.79 11.3521C17.1335 10.5914 17.7187 9.96552 18.4546 9.57171C19.1905 9.1779 20.0359 9.03821 20.8594 9.17436C21.6829 9.31051 22.4383 9.71486 23.0083 10.3246C23.8571 10.1576 24.6711 9.84679 25.4153 9.40565C25.132 10.282 24.5402 11.0257 23.7498 11.4987C24.5006 11.4093 25.2337 11.2077 25.9246 10.9007C25.4163 11.6628 24.776 12.328 24.0339 12.8651Z" fill="#2a98e4"/>
</svg>
