<svg width="33" height="33" viewBox="0 0 33 33" fill="none" xmlns="http://www.w3.org/2000/svg">
    <path d="M0 8C0 3.58172 3.58172 0 8 0H25C29.4183 0 33 3.58172 33 8V25C33 29.4183 29.4183 33 25 33H8C3.58172 33 0 29.4183 0 25V8Z" fill="#A258CB"/>
    <path d="M16.4573 32.9155C25.5463 32.9155 32.9145 25.5664 32.9145 16.5008C32.9145 7.43518 25.5463 0.0860596 16.4573 0.0860596C7.36816 0.0860596 0 7.43518 0 16.5008C0 25.5664 7.36816 32.9155 16.4573 32.9155Z" fill="#A258CB"/>
    <path d="M11.1973 26.8813L9.70613 24.4481C9.66538 24.3814 9.60813 24.3264 9.53989 24.2882C9.47165 24.25 9.39471 24.2299 9.31645 24.2299H6.42065C6.29963 24.2299 6.18357 24.182 6.098 24.0966C6.01243 24.0113 5.96436 23.8955 5.96436 23.7748V10.6797C5.96421 10.5973 5.98655 10.5164 6.02897 10.4457L8.00424 7.16178C8.0448 7.09431 8.1022 7.03847 8.17085 6.99972C8.23949 6.96096 8.31703 6.94062 8.39591 6.94067H26.4388C26.4987 6.94067 26.558 6.95245 26.6134 6.97532C26.6687 6.99819 26.719 7.03171 26.7614 7.07397C26.8038 7.11623 26.8374 7.1664 26.8603 7.22162C26.8832 7.27684 26.895 7.33602 26.895 7.39578V18.2808C26.8952 18.3406 26.8834 18.3998 26.8606 18.4551C26.8377 18.5104 26.8042 18.5607 26.7618 18.603L21.2535 24.0971C21.2111 24.1393 21.1607 24.1728 21.1053 24.1956C21.0498 24.2184 20.9904 24.23 20.9305 24.2299H15.621C15.5434 24.2299 15.467 24.2497 15.3992 24.2873C15.3313 24.325 15.2742 24.3793 15.2333 24.4451L13.7163 26.8843C13.6754 26.9501 13.6183 27.0043 13.5504 27.042C13.4826 27.0796 13.4063 27.0994 13.3286 27.0994H11.587C11.5087 27.0994 11.4318 27.0794 11.3635 27.0412C11.2953 27.003 11.238 26.9479 11.1973 26.8813Z" fill="#6E2C92"/>
    <path d="M11.0939 21.3605H9.82051C9.75143 21.3605 9.68519 21.3331 9.63634 21.2844C9.5875 21.2357 9.56006 21.1696 9.56006 21.1007V10.7888C9.56006 10.7199 9.5875 10.6539 9.63634 10.6051C9.68519 10.5564 9.75143 10.5291 9.82051 10.5291H24.4765C24.5455 10.5291 24.6118 10.5564 24.6606 10.6051C24.7095 10.6539 24.7369 10.7199 24.7369 10.7888V16.9284C24.7368 16.9972 24.7093 17.0632 24.6604 17.1118L20.4762 21.2851C20.4275 21.3339 20.3613 21.3614 20.2923 21.3615H13.8526C13.8067 21.3616 13.7617 21.3737 13.7221 21.3967C13.6825 21.4197 13.6496 21.4527 13.6269 21.4924L12.6994 23.1105C12.6766 23.1503 12.6437 23.1834 12.604 23.2064C12.5643 23.2294 12.5192 23.2415 12.4733 23.2415C12.4273 23.2415 12.3822 23.2294 12.3425 23.2064C12.3028 23.1834 12.2699 23.1503 12.2471 23.1105L11.3196 21.4924C11.297 21.4525 11.2642 21.4193 11.2246 21.3961C11.1849 21.373 11.1399 21.3607 11.0939 21.3605Z" fill="white"/>
    <path d="M13.1567 17.545V13.6255C13.1567 13.565 13.1808 13.507 13.2237 13.4643C13.2666 13.4215 13.3247 13.3975 13.3854 13.3975H15.1539C15.2145 13.3975 15.2727 13.4215 15.3155 13.4643C15.3584 13.507 15.3825 13.565 15.3825 13.6255V17.545C15.3825 17.6055 15.3584 17.6635 15.3155 17.7063C15.2727 17.749 15.2145 17.7731 15.1539 17.7731H13.3814C13.3215 17.772 13.2643 17.7475 13.2223 17.7049C13.1803 17.6622 13.1567 17.6048 13.1567 17.545Z" fill="#6E2C92"/>
    <path d="M18.188 17.545V13.6255C18.188 13.565 18.2121 13.507 18.2549 13.4643C18.2978 13.4215 18.356 13.3975 18.4166 13.3975H20.1891C20.2497 13.3975 20.3079 13.4215 20.3508 13.4643C20.3936 13.507 20.4177 13.565 20.4177 13.6255V17.545C20.4177 17.6055 20.3936 17.6635 20.3508 17.7063C20.3079 17.749 20.2497 17.7731 20.1891 17.7731H18.4166C18.356 17.7731 18.2978 17.749 18.2549 17.7063C18.2121 17.6635 18.188 17.6055 18.188 17.545Z" fill="#6E2C92"/>
</svg>
