<svg width="33" height="33" viewBox="0 0 33 33" fill="none" xmlns="http://www.w3.org/2000/svg">
    <path d="M0 8C0 3.58172 3.58172 0 8 0H25C29.4183 0 33 3.58172 33 8V25C33 29.4183 29.4183 33 25 33H8C3.58172 33 0 29.4183 0 25V8Z" fill="#D42428"/>
    <path d="M16.4777 32.9554C25.5781 32.9554 32.9554 25.5781 32.9554 16.4777C32.9554 7.37732 25.5781 0 16.4777 0C7.37732 0 0 7.37732 0 16.4777C0 25.5781 7.37732 32.9554 16.4777 32.9554Z" fill="#D42428"/>
    <path d="M25.0998 13.297C25.0998 12.634 24.8365 11.9982 24.3678 11.5293C23.899 11.0603 23.2633 10.7968 22.6003 10.7965H10.8731C10.2101 10.7968 9.5743 11.0603 9.10558 11.5293C8.63685 11.9982 8.37354 12.634 8.37354 13.297V20.0033C8.3734 20.3316 8.43796 20.6567 8.56351 20.9601C8.68907 21.2635 8.87316 21.5391 9.10528 21.7713C9.3374 22.0036 9.61299 22.1878 9.91632 22.3134C10.2196 22.4391 10.5448 22.5038 10.8731 22.5038H22.6003C23.2633 22.5035 23.899 22.24 24.3678 21.771C24.8365 21.3021 25.0998 20.6663 25.0998 20.0033V13.297ZM15.0638 19.4793V13.1807L19.8362 16.3305L15.0638 19.4793Z" fill="white"/>
</svg>
